<?xml version="1.0" encoding="UTF-8" standalone="no"?>
<svg
   xmlns:dc="http://purl.org/dc/elements/1.1/"
   xmlns:cc="http://creativecommons.org/ns#"
   xmlns:rdf="http://www.w3.org/1999/02/22-rdf-syntax-ns#"
   xmlns:svg="http://www.w3.org/2000/svg"
   xmlns="http://www.w3.org/2000/svg"
   xmlns:sodipodi="http://sodipodi.sourceforge.net/DTD/sodipodi-0.dtd"
   xmlns:inkscape="http://www.inkscape.org/namespaces/inkscape"
   height="40"
   width="40"
   xml:space="preserve"
   viewBox="0 0 40 40"
   y="0px"
   x="0px"
   id="Capa_1"
   version="1.1"
   sodipodi:docname="clear.svg"
   inkscape:version="0.92.4 (5da689c313, 2019-01-14)"><sodipodi:namedview
     pagecolor="#ffffff"
     bordercolor="#666666"
     borderopacity="1"
     objecttolerance="10"
     gridtolerance="10"
     guidetolerance="10"
     inkscape:pageopacity="0"
     inkscape:pageshadow="2"
     inkscape:window-width="1920"
     inkscape:window-height="1056"
     id="namedview22"
     showgrid="false"
     inkscape:zoom="11.799853"
     inkscape:cx="-5.0423109"
     inkscape:cy="10.000125"
     inkscape:window-x="1920"
     inkscape:window-y="0"
     inkscape:window-maximized="1"
     inkscape:current-layer="g3" /><metadata
     id="metadata43"><rdf:RDF><cc:Work
         rdf:about=""><dc:format>image/svg+xml</dc:format><dc:type
           rdf:resource="http://purl.org/dc/dcmitype/StillImage" /><dc:title></dc:title></cc:Work></rdf:RDF></metadata><defs
     id="defs41" /><g
     transform="matrix(0.95268263,0,0,0.95267406,-4.7697485,-4.7726091)"
     id="g3"
     style="fill:#808080;fill-opacity:1;stroke:#808080;stroke-width:0.73477056;stroke-miterlimit:4;stroke-dasharray:none;stroke-opacity:1"><path
       id="path7"
       d="m 33.864244,18.136822 c -0.316773,-0.316781 -0.828796,-0.316781 -1.14557,0 L 26,24.855631 19.281324,18.136822 c -0.316774,-0.316781 -0.828796,-0.316781 -1.145569,0 -0.316774,0.316779 -0.316774,0.828812 0,1.145592 l 6.718675,6.71881 -6.718675,6.71881 c -0.316774,0.316779 -0.316774,0.828812 0,1.145592 0.157982,0.157986 0.365382,0.237382 0.572784,0.237382 0.207402,0 0.414803,-0.0794 0.572785,-0.237382 L 26,27.146816 l 6.718674,6.71881 c 0.157982,0.157986 0.365384,0.237382 0.572785,0.237382 0.207402,0 0.414803,-0.0794 0.572785,-0.237382 0.316773,-0.31678 0.316773,-0.828813 0,-1.145592 l -6.718676,-6.71881 6.718676,-6.71881 c 0.316773,-0.31678 0.316773,-0.828813 0,-1.145592 z"
       inkscape:connector-curvature="0"
       style="fill:#808080;fill-opacity:1;stroke:#808080;stroke-width:0.59528935;stroke-miterlimit:4;stroke-dasharray:none;stroke-opacity:1" /></g><g
     transform="matrix(0.95268263,0,0,0.95267406,-4.7697485,-4.7726091)"
     id="g9"
     style="fill:#808080;fill-opacity:1;stroke-width:0.73477056;stroke-miterlimit:4;stroke-dasharray:none" /><g
     transform="matrix(0.95268263,0,0,0.95267406,-4.7697485,-4.7726091)"
     id="g11"
     style="fill:#808080;fill-opacity:1;stroke-width:0.73477056;stroke-miterlimit:4;stroke-dasharray:none" /><g
     transform="matrix(0.95268263,0,0,0.95267406,-4.7697485,-4.7726091)"
     id="g13"
     style="fill:#808080;fill-opacity:1;stroke-width:0.73477056;stroke-miterlimit:4;stroke-dasharray:none" /><g
     transform="matrix(0.95268263,0,0,0.95267406,-4.7697485,-4.7726091)"
     id="g15"
     style="fill:#808080;fill-opacity:1;stroke-width:0.73477056;stroke-miterlimit:4;stroke-dasharray:none" /><g
     transform="matrix(0.95268263,0,0,0.95267406,-4.7697485,-4.7726091)"
     id="g17"
     style="fill:#808080;fill-opacity:1;stroke-width:0.73477056;stroke-miterlimit:4;stroke-dasharray:none" /><g
     transform="matrix(0.95268263,0,0,0.95267406,-4.7697485,-4.7726091)"
     id="g19"
     style="fill:#808080;fill-opacity:1;stroke-width:0.73477056;stroke-miterlimit:4;stroke-dasharray:none" /><g
     transform="matrix(0.95268263,0,0,0.95267406,-4.7697485,-4.7726091)"
     id="g21"
     style="fill:#808080;fill-opacity:1;stroke-width:0.73477056;stroke-miterlimit:4;stroke-dasharray:none" /><g
     transform="matrix(0.95268263,0,0,0.95267406,-4.7697485,-4.7726091)"
     id="g23"
     style="fill:#808080;fill-opacity:1;stroke-width:0.73477056;stroke-miterlimit:4;stroke-dasharray:none" /><g
     transform="matrix(0.95268263,0,0,0.95267406,-4.7697485,-4.7726091)"
     id="g25"
     style="fill:#808080;fill-opacity:1;stroke-width:0.73477056;stroke-miterlimit:4;stroke-dasharray:none" /><g
     transform="matrix(0.95268263,0,0,0.95267406,-4.7697485,-4.7726091)"
     id="g27"
     style="fill:#808080;fill-opacity:1;stroke-width:0.73477056;stroke-miterlimit:4;stroke-dasharray:none" /><g
     transform="matrix(0.95268263,0,0,0.95267406,-4.7697485,-4.7726091)"
     id="g29"
     style="fill:#808080;fill-opacity:1;stroke-width:0.73477056;stroke-miterlimit:4;stroke-dasharray:none" /><g
     transform="matrix(0.95268263,0,0,0.95267406,-4.7697485,-4.7726091)"
     id="g31"
     style="fill:#808080;fill-opacity:1;stroke-width:0.73477056;stroke-miterlimit:4;stroke-dasharray:none" /><g
     transform="matrix(0.95268263,0,0,0.95267406,-4.7697485,-4.7726091)"
     id="g33"
     style="fill:#808080;fill-opacity:1;stroke-width:0.73477056;stroke-miterlimit:4;stroke-dasharray:none" /><g
     transform="matrix(0.95268263,0,0,0.95267406,-4.7697485,-4.7726091)"
     id="g35"
     style="fill:#808080;fill-opacity:1;stroke-width:0.73477056;stroke-miterlimit:4;stroke-dasharray:none" /><g
     transform="matrix(0.95268263,0,0,0.95267406,-4.7697485,-4.7726091)"
     id="g37"
     style="fill:#808080;fill-opacity:1;stroke-width:0.73477056;stroke-miterlimit:4;stroke-dasharray:none" /></svg>