<?xml version="1.0" encoding="UTF-8" standalone="no"?>
<!-- Created with Inkscape (http://www.inkscape.org/) -->

<svg
   xmlns:dc="http://purl.org/dc/elements/1.1/"
   xmlns:cc="http://creativecommons.org/ns#"
   xmlns:rdf="http://www.w3.org/1999/02/22-rdf-syntax-ns#"
   xmlns:svg="http://www.w3.org/2000/svg"
   xmlns="http://www.w3.org/2000/svg"
   xmlns:sodipodi="http://sodipodi.sourceforge.net/DTD/sodipodi-0.dtd"
   xmlns:inkscape="http://www.inkscape.org/namespaces/inkscape"
   width="25.526005"
   height="25.526005"
   viewBox="0 0 25.526005 25.526005"
   id="svg2"
   version="1.1"
   inkscape:version="0.92.4 (5da689c313, 2019-01-14)"
   sodipodi:docname="help.svg">
  <defs
     id="defs4" />
  <sodipodi:namedview
     id="base"
     pagecolor="#ffffff"
     bordercolor="#666666"
     borderopacity="1.0"
     inkscape:pageopacity="0.0"
     inkscape:pageshadow="2"
     inkscape:zoom="11.2"
     inkscape:cx="11.095235"
     inkscape:cy="12.289807"
     inkscape:document-units="px"
     inkscape:current-layer="layer1"
     showgrid="false"
     fit-margin-top="1"
     fit-margin-left="1"
     fit-margin-right="1"
     fit-margin-bottom="1"
     units="px"
     inkscape:window-width="1920"
     inkscape:window-height="1023"
     inkscape:window-x="3840"
     inkscape:window-y="0"
     inkscape:window-maximized="1" />
  <metadata
     id="metadata7">
    <rdf:RDF>
      <cc:Work
         rdf:about="">
        <dc:format>image/svg+xml</dc:format>
        <dc:type
           rdf:resource="http://purl.org/dc/dcmitype/StillImage" />
        <dc:title></dc:title>
      </cc:Work>
    </rdf:RDF>
  </metadata>
  <g
     inkscape:label="Layer 1"
     inkscape:groupmode="layer"
     id="layer1"
     transform="translate(-152.30336,-354.53287)">
    <circle
       style="opacity:1;fill:none;fill-opacity:1;stroke:#808080;stroke-width:1.2;stroke-linecap:butt;stroke-linejoin:miter;stroke-miterlimit:4;stroke-dasharray:none;stroke-dashoffset:0;stroke-opacity:1"
       id="path8068"
       cx="165.06636"
       cy="367.29587"
       r="11.263002" />
    <g
       aria-label="?"
       transform="matrix(0.95091014,0,0,1.0516241,-0.2,0)"
       style="font-style:normal;font-weight:normal;font-size:11.4902792px;line-height:0%;font-family:sans-serif;letter-spacing:0px;word-spacing:0px;fill:#808080;fill-opacity:1;stroke:#808080;stroke-width:0.1;stroke-linecap:butt;stroke-linejoin:miter;stroke-miterlimit:4;stroke-dasharray:none;stroke-opacity:1"
       id="text8070">
      <path
         id="path815"
         style="font-style:normal;font-variant:normal;font-weight:normal;font-stretch:normal;font-size:14.83644199px;line-height:1.25;font-family:Arial;-inkscape-font-specification:Arial;stroke:#808080;stroke-width:0.1;stroke-miterlimit:4;stroke-dasharray:none;stroke-opacity:1"
         d="m 177.57605,347.10094 q 0,0.51435 -0.13764,0.90555 -0.1304,0.39119 -0.35498,0.7027 -0.22457,0.30426 -0.51435,0.55057 -0.28253,0.23906 -0.57955,0.45639 -0.29701,0.21734 -0.58679,0.42742 -0.28253,0.21009 -0.51435,0.4564 -0.22457,0.2463 -0.36946,0.55057 -0.13764,0.29702 -0.14489,0.69546 h -1.26776 q 0.0145,-0.49987 0.15213,-0.87657 0.14489,-0.37671 0.36946,-0.66648 0.22458,-0.28978 0.50711,-0.51435 0.28253,-0.23182 0.5723,-0.43466 0.28978,-0.21009 0.56506,-0.41293 0.28253,-0.21009 0.49986,-0.46364 0.21733,-0.25355 0.34773,-0.5723 0.13765,-0.31876 0.13765,-0.74617 0,-0.42742 -0.15214,-0.76066 -0.15213,-0.33324 -0.43466,-0.55782 -0.27528,-0.23182 -0.67372,-0.34773 -0.3912,-0.1159 -0.87657,-0.1159 -1.01421,0 -1.60825,0.5071 -0.59403,0.50711 -0.69545,1.39092 l -1.33297,-0.0869 q 0.0797,-0.60852 0.31876,-1.1446 0.2463,-0.54333 0.68097,-0.94901 0.4419,-0.40569 1.08665,-0.63751 0.65199,-0.23906 1.5358,-0.23906 0.82586,0 1.47061,0.20284 0.64474,0.20284 1.08665,0.57955 0.44915,0.36946 0.68097,0.90554 0.23182,0.53609 0.23182,1.19532 z m -4.52772,7.47618 V 353.121 h 1.41265 v 1.45612 z"
         inkscape:connector-curvature="0" />
    </g>
  </g>
</svg>
